<svg xmlns="http://www.w3.org/2000/svg" version="1.1" xmlns:xlink="http://www.w3.org/1999/xlink" width="512" height="512" x="0" y="0" viewBox="0 0 64 64" style="enable-background:new 0 0 512 512" xml:space="preserve" class=""><g><path fill="#80d6fb" d="M48.676 41.948 38 38.983H26l-10.676 2.966A10 10 0 0 0 8 51.584V62h48V51.584c0-4.492-2.995-8.433-7.324-9.636z" opacity="1" data-original="#80d6fb" class=""></path><path fill="#46bee8" d="M16 56h2v6h-2zM38 38.983H26l-1.973.548C24.302 43.694 27.768 47 32 47s7.698-3.306 7.973-7.469z" opacity="1" data-original="#46bee8" class=""></path><path fill="#fcb98b" d="M38 31.983H26v7l.001.001L26 39a6 6 0 1 0 12 0l-.001-.017H38z" opacity="1" data-original="#fcb98b" class=""></path><path fill="#ffd3b3" d="M44 13.983V24c0 6.627-5.373 12-12 12s-12-5.373-12-12V13.983zM44 17h.693a2 2 0 0 1 1.98 2.284l-.427 2.983a2 2 0 0 1-1.98 1.716H44zM20 17h-.693a2 2 0 0 0-1.98 2.284l.427 2.983a2 2 0 0 0 1.98 1.716H20z" opacity="1" data-original="#ffd3b3" class=""></path><path fill="#101010" d="m44 23.983-2-8H22l-2 8V12c0-5.523 4.477-10 10-10h5a4 4 0 0 1 4 4 5 5 0 0 1 5 5z" opacity="1" data-original="#6e83b7" class=""></path><g fill="#ffb0aa"><path d="M53 10h-2V3h-7V1h9zM13 10h-2V1h9v2h-7zM53 39h-9v-2h7v-7h2zM20 39h-9v-9h2v7h7zM11 19h42v2H11z" fill="#ffb0aa" opacity="1" data-original="#ffb0aa" class=""></path></g><circle cx="52" cy="52" r="10" fill="#fcfffd" opacity="1" data-original="#98ca69" class=""></circle><circle cx="52" cy="52" r="8" fill="#28e78b" opacity="1" data-original="#edeff1" class=""></circle><path fill="#fcfffd" d="m51 55.914-3.707-3.707 1.414-1.414L51 53.086l5.043-5.043 1.414 1.414z" opacity="1" data-original="#98ca69" class=""></path></g></svg>